<svg width="800" height="800" viewBox="0 0 800 800" fill="none" xmlns="http://www.w3.org/2000/svg">
<rect x="140" y="188" width="562" height="425" fill="white"/>
<path d="M385.425 0.119446C352.719 1.9342 329.604 5.24811 302.558 12.0337C229.754 30.2601 164.419 68.0544 112.056 122.26C47.4288 189.091 8.90396 274.463 0.884499 368.515C-0.294833 382.717 -0.294833 417.434 0.884499 431.637C8.90396 525.688 47.4288 611.061 112.056 677.891C180.3 748.588 269.222 790.485 368.522 799.006C391.322 800.9 426.781 800.032 451.468 796.876C526.867 787.329 598.491 755.768 658.244 705.744C670.667 695.407 696.533 669.527 706.282 657.692C760.768 591.887 791.587 516.93 799.057 432.031C799.607 426.192 800 411.753 800 400.076C800 388.319 799.607 373.959 799.057 368.12C791.587 283.221 760.768 208.264 706.282 142.459C696.533 130.624 670.667 104.744 658.244 94.4078C593.224 39.9651 516.095 8.16748 432.206 1.30298C421.513 0.35614 393.13 -0.275085 385.425 0.119446ZM511.221 242.508C513.58 243.06 517.511 243.849 519.869 244.322C538.031 247.873 553.991 258.525 563.976 273.595C574.512 289.612 578.05 308.075 578.05 346.185C577.971 397.63 570.109 421.143 547.78 436.529C541.176 441.105 526.238 446.944 518.14 448.127C516.095 448.443 514.208 448.995 513.973 449.469C513.658 449.863 515.938 453.493 518.847 457.517C521.835 461.462 528.046 469.904 532.685 476.216C537.323 482.529 544.871 492.786 549.51 499.098C554.227 505.41 560.281 513.774 563.111 517.64C565.942 521.506 572.232 529.949 577.028 536.498C581.902 543.047 585.755 548.728 585.676 549.201C585.44 549.675 570.581 550.069 543.613 550.227L501.943 550.385L499.978 548.649C498.877 547.623 486.219 529.081 471.753 507.383C438.495 457.517 435.036 452.467 433.542 450.731C432.441 449.469 427.881 449.39 359.008 449.39H285.575L285.418 499.65L285.182 549.99L249.409 550.227C229.754 550.306 212.457 550.227 211.12 549.99L208.526 549.517V395.263V241.008L357.75 241.324C467.9 241.561 507.997 241.797 511.221 242.508Z" fill="#2B80FF"/>
<path d="M286.912 309.496C285.654 309.811 285.575 312.021 285.733 345.475L285.968 381.139L381.494 381.376C451.154 381.534 478.593 381.376 482.917 380.666C492.116 379.245 495.103 377.273 498.641 370.172C499.585 368.357 499.821 363.544 499.821 345.317C499.821 323.698 499.742 322.593 498.091 319.595C494.71 313.204 490.543 310.995 479.379 309.732C472.46 308.943 289.9 308.707 286.912 309.496Z" fill="#2B80FF"/>
</svg>
